<svg width="103" height="22" viewBox="0 0 103 22" fill="none" xmlns="http://www.w3.org/2000/svg">
<g clip-path="url(#clip0_1421_8187)">
<path d="M40.219 11.5789L37.9302 5.21053H31.4722V16.4586L27.2214 5.29323H22.0714C21.3357 2.23308 19.1286 0.0827068 15.123 0H0V22H9.64603V14.8872H15.2865C16.431 14.8872 17.4119 14.7218 18.2294 14.3083L15.123 22H20.6L21.7444 18.9398H26.8944L28.1206 22H36.1317V15.7143L38.7476 22H44.7968V5.29323H40.1373V11.5789H40.219ZM12.9976 10.0902C12.9976 10.6692 12.5889 11.1654 11.9349 11.2481H10.1365V3.30827H11.9349C12.5889 3.22556 12.9159 3.80451 12.9976 4.46617V10.0902ZM22.8889 15.4662L24.6056 10.9173L26.2405 15.4662H22.8889ZM75.7786 22H80.9286V5.29323H75.7786V22ZM69.6476 17.1203C69.6476 17.5338 69.6476 18.2782 69.0754 18.2782H67.7675C67.1952 18.2782 67.1952 17.6992 67.1135 17.1203V5.21053H61.7183V18.5263C61.7183 21.8346 65.1516 22 65.1516 22H71.0373C73.9802 22 73.8984 18.5263 73.8984 18.5263V5.29323H69.4841C69.5659 12.1579 69.6476 17.1203 69.6476 17.1203ZM81.9913 5.21053V8.68421H85.6698V22.0827H90.7381V8.6015H94.4167V5.21053H81.9913ZM57.304 5.12782H47.004V21.9173H57.2222C58.7754 21.9173 59.9198 21.5038 59.9198 19.6015V7.44361C60.0016 6.03759 58.7754 5.12782 57.304 5.12782ZM55.1786 16.7895C55.1786 17.5338 54.7698 17.8647 54.3611 17.8647H52.8897V8.68421H54.1976C54.7698 8.68421 55.1786 9.18045 55.1786 9.7594V16.7895Z" fill="black"/>
<path d="M96.0518 5.21045H98.8311V5.62398H97.6867V8.60143H97.1962V5.62398H96.0518V5.21045Z" fill="black"/>
<path d="M102.428 8.60143V6.61646C102.428 6.53376 102.428 6.12022 102.428 5.7894L101.447 8.68413H100.956L100.057 5.7894C100.057 6.12022 100.057 6.53376 100.057 6.61646V8.60143H99.6484V5.21045H100.302L101.283 8.10519L102.264 5.21045H102.918V8.60143H102.428Z" fill="black"/>
</g>
<defs>
<clipPath id="clip0_1421_8187">
<rect width="103" height="22" fill="white"/>
</clipPath>
</defs>
</svg>